<mxfile host="app.diagrams.net" modified="2023-12-03T04:49:01.666Z" agent="Mozilla/5.0 (Windows NT 10.0; Win64; x64) AppleWebKit/537.36 (KHTML, like Gecko) Chrome/120.0.0.0 Safari/537.36 Edg/120.0.0.0" etag="qfrksSeKQ_ANaOW8qxhO" version="22.1.5" type="device">
  <diagram id="C5RBs43oDa-KdzZeNtuy" name="Page-1">
    <mxGraphModel dx="3804" dy="2798" grid="1" gridSize="10" guides="1" tooltips="1" connect="1" arrows="1" fold="1" page="1" pageScale="1" pageWidth="827" pageHeight="1169" math="0" shadow="0">
      <root>
        <mxCell id="WIyWlLk6GJQsqaUBKTNV-0" />
        <mxCell id="WIyWlLk6GJQsqaUBKTNV-1" parent="WIyWlLk6GJQsqaUBKTNV-0" />
        <mxCell id="Lmp_f9BYq3N74pTqD6iq-0" value="User" style="swimlane;fontStyle=0;align=center;verticalAlign=top;childLayout=stackLayout;horizontal=1;startSize=26;horizontalStack=0;resizeParent=1;resizeLast=0;collapsible=1;marginBottom=0;rounded=0;shadow=0;strokeWidth=1;" vertex="1" parent="WIyWlLk6GJQsqaUBKTNV-1">
          <mxGeometry x="120" y="60" width="410" height="346" as="geometry">
            <mxRectangle x="550" y="140" width="160" height="26" as="alternateBounds" />
          </mxGeometry>
        </mxCell>
        <mxCell id="Lmp_f9BYq3N74pTqD6iq-1" value="- idUser : String" style="text;align=left;verticalAlign=top;spacingLeft=4;spacingRight=4;overflow=hidden;rotatable=0;points=[[0,0.5],[1,0.5]];portConstraint=eastwest;" vertex="1" parent="Lmp_f9BYq3N74pTqD6iq-0">
          <mxGeometry y="26" width="410" height="26" as="geometry" />
        </mxCell>
        <mxCell id="Lmp_f9BYq3N74pTqD6iq-2" value="- username : String" style="text;align=left;verticalAlign=top;spacingLeft=4;spacingRight=4;overflow=hidden;rotatable=0;points=[[0,0.5],[1,0.5]];portConstraint=eastwest;rounded=0;shadow=0;html=0;" vertex="1" parent="Lmp_f9BYq3N74pTqD6iq-0">
          <mxGeometry y="52" width="410" height="26" as="geometry" />
        </mxCell>
        <mxCell id="Lmp_f9BYq3N74pTqD6iq-3" value="- name : String" style="text;align=left;verticalAlign=top;spacingLeft=4;spacingRight=4;overflow=hidden;rotatable=0;points=[[0,0.5],[1,0.5]];portConstraint=eastwest;rounded=0;shadow=0;html=0;" vertex="1" parent="Lmp_f9BYq3N74pTqD6iq-0">
          <mxGeometry y="78" width="410" height="26" as="geometry" />
        </mxCell>
        <mxCell id="Lmp_f9BYq3N74pTqD6iq-4" value="- password : String" style="text;align=left;verticalAlign=top;spacingLeft=4;spacingRight=4;overflow=hidden;rotatable=0;points=[[0,0.5],[1,0.5]];portConstraint=eastwest;rounded=0;shadow=0;html=0;" vertex="1" parent="Lmp_f9BYq3N74pTqD6iq-0">
          <mxGeometry y="104" width="410" height="26" as="geometry" />
        </mxCell>
        <mxCell id="Lmp_f9BYq3N74pTqD6iq-6" value="" style="line;html=1;strokeWidth=1;align=left;verticalAlign=middle;spacingTop=-1;spacingLeft=3;spacingRight=3;rotatable=0;labelPosition=right;points=[];portConstraint=eastwest;" vertex="1" parent="Lmp_f9BYq3N74pTqD6iq-0">
          <mxGeometry y="130" width="410" height="8" as="geometry" />
        </mxCell>
        <mxCell id="Lmp_f9BYq3N74pTqD6iq-7" value="+ User(idUser : String, username : String, name : String, password : string)" style="text;align=left;verticalAlign=top;spacingLeft=4;spacingRight=4;overflow=hidden;rotatable=0;points=[[0,0.5],[1,0.5]];portConstraint=eastwest;" vertex="1" parent="Lmp_f9BYq3N74pTqD6iq-0">
          <mxGeometry y="138" width="410" height="26" as="geometry" />
        </mxCell>
        <mxCell id="Lmp_f9BYq3N74pTqD6iq-8" value="+ getIdUser() : String" style="text;align=left;verticalAlign=top;spacingLeft=4;spacingRight=4;overflow=hidden;rotatable=0;points=[[0,0.5],[1,0.5]];portConstraint=eastwest;" vertex="1" parent="Lmp_f9BYq3N74pTqD6iq-0">
          <mxGeometry y="164" width="410" height="26" as="geometry" />
        </mxCell>
        <mxCell id="Lmp_f9BYq3N74pTqD6iq-11" value="+ getUsername() : String" style="text;align=left;verticalAlign=top;spacingLeft=4;spacingRight=4;overflow=hidden;rotatable=0;points=[[0,0.5],[1,0.5]];portConstraint=eastwest;" vertex="1" parent="Lmp_f9BYq3N74pTqD6iq-0">
          <mxGeometry y="190" width="410" height="26" as="geometry" />
        </mxCell>
        <mxCell id="Lmp_f9BYq3N74pTqD6iq-12" value="+ getNama() : String" style="text;align=left;verticalAlign=top;spacingLeft=4;spacingRight=4;overflow=hidden;rotatable=0;points=[[0,0.5],[1,0.5]];portConstraint=eastwest;" vertex="1" parent="Lmp_f9BYq3N74pTqD6iq-0">
          <mxGeometry y="216" width="410" height="26" as="geometry" />
        </mxCell>
        <mxCell id="Lmp_f9BYq3N74pTqD6iq-10" value="+ getPassword() : String" style="text;align=left;verticalAlign=top;spacingLeft=4;spacingRight=4;overflow=hidden;rotatable=0;points=[[0,0.5],[1,0.5]];portConstraint=eastwest;" vertex="1" parent="Lmp_f9BYq3N74pTqD6iq-0">
          <mxGeometry y="242" width="410" height="26" as="geometry" />
        </mxCell>
        <mxCell id="Lmp_f9BYq3N74pTqD6iq-13" value="+ setUsername() " style="text;align=left;verticalAlign=top;spacingLeft=4;spacingRight=4;overflow=hidden;rotatable=0;points=[[0,0.5],[1,0.5]];portConstraint=eastwest;" vertex="1" parent="Lmp_f9BYq3N74pTqD6iq-0">
          <mxGeometry y="268" width="410" height="26" as="geometry" />
        </mxCell>
        <mxCell id="Lmp_f9BYq3N74pTqD6iq-14" value="+ setNama() " style="text;align=left;verticalAlign=top;spacingLeft=4;spacingRight=4;overflow=hidden;rotatable=0;points=[[0,0.5],[1,0.5]];portConstraint=eastwest;" vertex="1" parent="Lmp_f9BYq3N74pTqD6iq-0">
          <mxGeometry y="294" width="410" height="26" as="geometry" />
        </mxCell>
        <mxCell id="Lmp_f9BYq3N74pTqD6iq-15" value="+ setPassword() " style="text;align=left;verticalAlign=top;spacingLeft=4;spacingRight=4;overflow=hidden;rotatable=0;points=[[0,0.5],[1,0.5]];portConstraint=eastwest;" vertex="1" parent="Lmp_f9BYq3N74pTqD6iq-0">
          <mxGeometry y="320" width="410" height="26" as="geometry" />
        </mxCell>
        <mxCell id="Lmp_f9BYq3N74pTqD6iq-16" value="Admin" style="swimlane;fontStyle=0;align=center;verticalAlign=top;childLayout=stackLayout;horizontal=1;startSize=26;horizontalStack=0;resizeParent=1;resizeLast=0;collapsible=1;marginBottom=0;rounded=0;shadow=0;strokeWidth=1;" vertex="1" parent="WIyWlLk6GJQsqaUBKTNV-1">
          <mxGeometry x="-190" y="520" width="420" height="70" as="geometry">
            <mxRectangle x="550" y="140" width="160" height="26" as="alternateBounds" />
          </mxGeometry>
        </mxCell>
        <mxCell id="Lmp_f9BYq3N74pTqD6iq-21" value="" style="line;html=1;strokeWidth=1;align=left;verticalAlign=middle;spacingTop=-1;spacingLeft=3;spacingRight=3;rotatable=0;labelPosition=right;points=[];portConstraint=eastwest;" vertex="1" parent="Lmp_f9BYq3N74pTqD6iq-16">
          <mxGeometry y="26" width="420" height="8" as="geometry" />
        </mxCell>
        <mxCell id="Lmp_f9BYq3N74pTqD6iq-22" value="+ Admin(idUser : String, username : String, name : String, password : string)" style="text;align=left;verticalAlign=top;spacingLeft=4;spacingRight=4;overflow=hidden;rotatable=0;points=[[0,0.5],[1,0.5]];portConstraint=eastwest;" vertex="1" parent="Lmp_f9BYq3N74pTqD6iq-16">
          <mxGeometry y="34" width="420" height="26" as="geometry" />
        </mxCell>
        <mxCell id="Lmp_f9BYq3N74pTqD6iq-30" value="Nasabah" style="swimlane;fontStyle=0;align=center;verticalAlign=top;childLayout=stackLayout;horizontal=1;startSize=26;horizontalStack=0;resizeParent=1;resizeLast=0;collapsible=1;marginBottom=0;rounded=0;shadow=0;strokeWidth=1;" vertex="1" parent="WIyWlLk6GJQsqaUBKTNV-1">
          <mxGeometry x="370" y="490" width="520" height="320" as="geometry">
            <mxRectangle x="550" y="140" width="160" height="26" as="alternateBounds" />
          </mxGeometry>
        </mxCell>
        <mxCell id="Lmp_f9BYq3N74pTqD6iq-31" value="- listsTabungan : ArrayList&lt;Tabungan&gt;" style="text;align=left;verticalAlign=top;spacingLeft=4;spacingRight=4;overflow=hidden;rotatable=0;points=[[0,0.5],[1,0.5]];portConstraint=eastwest;" vertex="1" parent="Lmp_f9BYq3N74pTqD6iq-30">
          <mxGeometry y="26" width="520" height="26" as="geometry" />
        </mxCell>
        <mxCell id="Lmp_f9BYq3N74pTqD6iq-32" value="- totalSaldo : double" style="text;align=left;verticalAlign=top;spacingLeft=4;spacingRight=4;overflow=hidden;rotatable=0;points=[[0,0.5],[1,0.5]];portConstraint=eastwest;rounded=0;shadow=0;html=0;" vertex="1" parent="Lmp_f9BYq3N74pTqD6iq-30">
          <mxGeometry y="52" width="520" height="26" as="geometry" />
        </mxCell>
        <mxCell id="Lmp_f9BYq3N74pTqD6iq-35" value="" style="line;html=1;strokeWidth=1;align=left;verticalAlign=middle;spacingTop=-1;spacingLeft=3;spacingRight=3;rotatable=0;labelPosition=right;points=[];portConstraint=eastwest;" vertex="1" parent="Lmp_f9BYq3N74pTqD6iq-30">
          <mxGeometry y="78" width="520" height="8" as="geometry" />
        </mxCell>
        <mxCell id="Lmp_f9BYq3N74pTqD6iq-36" value="+ Nasabah(idUser : String, username : String, name : String, password : String, noRek : String)" style="text;align=left;verticalAlign=top;spacingLeft=4;spacingRight=4;overflow=hidden;rotatable=0;points=[[0,0.5],[1,0.5]];portConstraint=eastwest;" vertex="1" parent="Lmp_f9BYq3N74pTqD6iq-30">
          <mxGeometry y="86" width="520" height="26" as="geometry" />
        </mxCell>
        <mxCell id="Lmp_f9BYq3N74pTqD6iq-37" value="+ tambahTabungan()" style="text;align=left;verticalAlign=top;spacingLeft=4;spacingRight=4;overflow=hidden;rotatable=0;points=[[0,0.5],[1,0.5]];portConstraint=eastwest;" vertex="1" parent="Lmp_f9BYq3N74pTqD6iq-30">
          <mxGeometry y="112" width="520" height="26" as="geometry" />
        </mxCell>
        <mxCell id="Lmp_f9BYq3N74pTqD6iq-38" value="+ getTabungan(noRek : String) : Tabungan" style="text;align=left;verticalAlign=top;spacingLeft=4;spacingRight=4;overflow=hidden;rotatable=0;points=[[0,0.5],[1,0.5]];portConstraint=eastwest;" vertex="1" parent="Lmp_f9BYq3N74pTqD6iq-30">
          <mxGeometry y="138" width="520" height="26" as="geometry" />
        </mxCell>
        <mxCell id="Lmp_f9BYq3N74pTqD6iq-39" value="+ cekSaldoKeseluruhan()" style="text;align=left;verticalAlign=top;spacingLeft=4;spacingRight=4;overflow=hidden;rotatable=0;points=[[0,0.5],[1,0.5]];portConstraint=eastwest;" vertex="1" parent="Lmp_f9BYq3N74pTqD6iq-30">
          <mxGeometry y="164" width="520" height="26" as="geometry" />
        </mxCell>
        <mxCell id="Lmp_f9BYq3N74pTqD6iq-40" value="+ cekMutasiRekening(noRek : String)" style="text;align=left;verticalAlign=top;spacingLeft=4;spacingRight=4;overflow=hidden;rotatable=0;points=[[0,0.5],[1,0.5]];portConstraint=eastwest;" vertex="1" parent="Lmp_f9BYq3N74pTqD6iq-30">
          <mxGeometry y="190" width="520" height="26" as="geometry" />
        </mxCell>
        <mxCell id="Lmp_f9BYq3N74pTqD6iq-41" value="+ cekNoRek() : String" style="text;align=left;verticalAlign=top;spacingLeft=4;spacingRight=4;overflow=hidden;rotatable=0;points=[[0,0.5],[1,0.5]];portConstraint=eastwest;" vertex="1" parent="Lmp_f9BYq3N74pTqD6iq-30">
          <mxGeometry y="216" width="520" height="26" as="geometry" />
        </mxCell>
        <mxCell id="Lmp_f9BYq3N74pTqD6iq-42" value="+ hapusTabungan(tabungan : Tabungan)" style="text;align=left;verticalAlign=top;spacingLeft=4;spacingRight=4;overflow=hidden;rotatable=0;points=[[0,0.5],[1,0.5]];portConstraint=eastwest;" vertex="1" parent="Lmp_f9BYq3N74pTqD6iq-30">
          <mxGeometry y="242" width="520" height="26" as="geometry" />
        </mxCell>
        <mxCell id="Lmp_f9BYq3N74pTqD6iq-43" value="+ getListsTabungan() : ArrayList &lt;Tabungan&gt;" style="text;align=left;verticalAlign=top;spacingLeft=4;spacingRight=4;overflow=hidden;rotatable=0;points=[[0,0.5],[1,0.5]];portConstraint=eastwest;" vertex="1" parent="Lmp_f9BYq3N74pTqD6iq-30">
          <mxGeometry y="268" width="520" height="26" as="geometry" />
        </mxCell>
        <mxCell id="Lmp_f9BYq3N74pTqD6iq-45" value="+ cekMutasiRekeningbyUsername(username : String)" style="text;align=left;verticalAlign=top;spacingLeft=4;spacingRight=4;overflow=hidden;rotatable=0;points=[[0,0.5],[1,0.5]];portConstraint=eastwest;" vertex="1" parent="Lmp_f9BYq3N74pTqD6iq-30">
          <mxGeometry y="294" width="520" height="26" as="geometry" />
        </mxCell>
        <mxCell id="Lmp_f9BYq3N74pTqD6iq-46" value="Tabungan" style="swimlane;fontStyle=0;align=center;verticalAlign=top;childLayout=stackLayout;horizontal=1;startSize=26;horizontalStack=0;resizeParent=1;resizeLast=0;collapsible=1;marginBottom=0;rounded=0;shadow=0;strokeWidth=1;" vertex="1" parent="WIyWlLk6GJQsqaUBKTNV-1">
          <mxGeometry x="827" y="-150" width="380" height="372" as="geometry">
            <mxRectangle x="550" y="140" width="160" height="26" as="alternateBounds" />
          </mxGeometry>
        </mxCell>
        <mxCell id="Lmp_f9BYq3N74pTqD6iq-47" value="- noRek : String" style="text;align=left;verticalAlign=top;spacingLeft=4;spacingRight=4;overflow=hidden;rotatable=0;points=[[0,0.5],[1,0.5]];portConstraint=eastwest;" vertex="1" parent="Lmp_f9BYq3N74pTqD6iq-46">
          <mxGeometry y="26" width="380" height="26" as="geometry" />
        </mxCell>
        <mxCell id="Lmp_f9BYq3N74pTqD6iq-48" value="- saldo : double" style="text;align=left;verticalAlign=top;spacingLeft=4;spacingRight=4;overflow=hidden;rotatable=0;points=[[0,0.5],[1,0.5]];portConstraint=eastwest;rounded=0;shadow=0;html=0;" vertex="1" parent="Lmp_f9BYq3N74pTqD6iq-46">
          <mxGeometry y="52" width="380" height="26" as="geometry" />
        </mxCell>
        <mxCell id="Lmp_f9BYq3N74pTqD6iq-49" value="- listsTransaksi : ArrayList&lt;Transaksi&gt;" style="text;align=left;verticalAlign=top;spacingLeft=4;spacingRight=4;overflow=hidden;rotatable=0;points=[[0,0.5],[1,0.5]];portConstraint=eastwest;rounded=0;shadow=0;html=0;" vertex="1" parent="Lmp_f9BYq3N74pTqD6iq-46">
          <mxGeometry y="78" width="380" height="26" as="geometry" />
        </mxCell>
        <mxCell id="Lmp_f9BYq3N74pTqD6iq-51" value="" style="line;html=1;strokeWidth=1;align=left;verticalAlign=middle;spacingTop=-1;spacingLeft=3;spacingRight=3;rotatable=0;labelPosition=right;points=[];portConstraint=eastwest;" vertex="1" parent="Lmp_f9BYq3N74pTqD6iq-46">
          <mxGeometry y="104" width="380" height="8" as="geometry" />
        </mxCell>
        <mxCell id="Lmp_f9BYq3N74pTqD6iq-52" value="+ Tabungan (noRek : String)" style="text;align=left;verticalAlign=top;spacingLeft=4;spacingRight=4;overflow=hidden;rotatable=0;points=[[0,0.5],[1,0.5]];portConstraint=eastwest;" vertex="1" parent="Lmp_f9BYq3N74pTqD6iq-46">
          <mxGeometry y="112" width="380" height="26" as="geometry" />
        </mxCell>
        <mxCell id="Lmp_f9BYq3N74pTqD6iq-53" value="+ getNoRek() : String" style="text;align=left;verticalAlign=top;spacingLeft=4;spacingRight=4;overflow=hidden;rotatable=0;points=[[0,0.5],[1,0.5]];portConstraint=eastwest;" vertex="1" parent="Lmp_f9BYq3N74pTqD6iq-46">
          <mxGeometry y="138" width="380" height="26" as="geometry" />
        </mxCell>
        <mxCell id="Lmp_f9BYq3N74pTqD6iq-54" value="+ getSaldo() : double" style="text;align=left;verticalAlign=top;spacingLeft=4;spacingRight=4;overflow=hidden;rotatable=0;points=[[0,0.5],[1,0.5]];portConstraint=eastwest;" vertex="1" parent="Lmp_f9BYq3N74pTqD6iq-46">
          <mxGeometry y="164" width="380" height="26" as="geometry" />
        </mxCell>
        <mxCell id="Lmp_f9BYq3N74pTqD6iq-55" value="+ setor(jumlah : double)" style="text;align=left;verticalAlign=top;spacingLeft=4;spacingRight=4;overflow=hidden;rotatable=0;points=[[0,0.5],[1,0.5]];portConstraint=eastwest;" vertex="1" parent="Lmp_f9BYq3N74pTqD6iq-46">
          <mxGeometry y="190" width="380" height="26" as="geometry" />
        </mxCell>
        <mxCell id="Lmp_f9BYq3N74pTqD6iq-56" value="+ tarik(jumlah : double)" style="text;align=left;verticalAlign=top;spacingLeft=4;spacingRight=4;overflow=hidden;rotatable=0;points=[[0,0.5],[1,0.5]];portConstraint=eastwest;" vertex="1" parent="Lmp_f9BYq3N74pTqD6iq-46">
          <mxGeometry y="216" width="380" height="26" as="geometry" />
        </mxCell>
        <mxCell id="Lmp_f9BYq3N74pTqD6iq-57" value="+ transferInPoket(poket : Tabungan, jumlah : double)" style="text;align=left;verticalAlign=top;spacingLeft=4;spacingRight=4;overflow=hidden;rotatable=0;points=[[0,0.5],[1,0.5]];portConstraint=eastwest;" vertex="1" parent="Lmp_f9BYq3N74pTqD6iq-46">
          <mxGeometry y="242" width="380" height="26" as="geometry" />
        </mxCell>
        <mxCell id="Lmp_f9BYq3N74pTqD6iq-61" value="+ transferOutPoket(poket : Tabungan, jumlah : double)" style="text;align=left;verticalAlign=top;spacingLeft=4;spacingRight=4;overflow=hidden;rotatable=0;points=[[0,0.5],[1,0.5]];portConstraint=eastwest;" vertex="1" parent="Lmp_f9BYq3N74pTqD6iq-46">
          <mxGeometry y="268" width="380" height="26" as="geometry" />
        </mxCell>
        <mxCell id="Lmp_f9BYq3N74pTqD6iq-62" value="+ transferInUser(poket : Tabungan, jumlah : double, fromRek : String)" style="text;align=left;verticalAlign=top;spacingLeft=4;spacingRight=4;overflow=hidden;rotatable=0;points=[[0,0.5],[1,0.5]];portConstraint=eastwest;" vertex="1" parent="Lmp_f9BYq3N74pTqD6iq-46">
          <mxGeometry y="294" width="380" height="26" as="geometry" />
        </mxCell>
        <mxCell id="Lmp_f9BYq3N74pTqD6iq-63" value="+ transferOutUser(poket : Tabungan, jumlah : double, toRek : String)" style="text;align=left;verticalAlign=top;spacingLeft=4;spacingRight=4;overflow=hidden;rotatable=0;points=[[0,0.5],[1,0.5]];portConstraint=eastwest;" vertex="1" parent="Lmp_f9BYq3N74pTqD6iq-46">
          <mxGeometry y="320" width="380" height="26" as="geometry" />
        </mxCell>
        <mxCell id="Lmp_f9BYq3N74pTqD6iq-64" value="+ mutasiRekening()" style="text;align=left;verticalAlign=top;spacingLeft=4;spacingRight=4;overflow=hidden;rotatable=0;points=[[0,0.5],[1,0.5]];portConstraint=eastwest;" vertex="1" parent="Lmp_f9BYq3N74pTqD6iq-46">
          <mxGeometry y="346" width="380" height="26" as="geometry" />
        </mxCell>
        <mxCell id="Lmp_f9BYq3N74pTqD6iq-65" value="Transaksi" style="swimlane;fontStyle=0;align=center;verticalAlign=top;childLayout=stackLayout;horizontal=1;startSize=26;horizontalStack=0;resizeParent=1;resizeLast=0;collapsible=1;marginBottom=0;rounded=0;shadow=0;strokeWidth=1;" vertex="1" parent="WIyWlLk6GJQsqaUBKTNV-1">
          <mxGeometry x="1450" y="-100" width="260" height="140" as="geometry">
            <mxRectangle x="550" y="140" width="160" height="26" as="alternateBounds" />
          </mxGeometry>
        </mxCell>
        <mxCell id="Lmp_f9BYq3N74pTqD6iq-66" value="- tanggal : String" style="text;align=left;verticalAlign=top;spacingLeft=4;spacingRight=4;overflow=hidden;rotatable=0;points=[[0,0.5],[1,0.5]];portConstraint=eastwest;" vertex="1" parent="Lmp_f9BYq3N74pTqD6iq-65">
          <mxGeometry y="26" width="260" height="26" as="geometry" />
        </mxCell>
        <mxCell id="Lmp_f9BYq3N74pTqD6iq-67" value="- jumlah : double" style="text;align=left;verticalAlign=top;spacingLeft=4;spacingRight=4;overflow=hidden;rotatable=0;points=[[0,0.5],[1,0.5]];portConstraint=eastwest;rounded=0;shadow=0;html=0;" vertex="1" parent="Lmp_f9BYq3N74pTqD6iq-65">
          <mxGeometry y="52" width="260" height="26" as="geometry" />
        </mxCell>
        <mxCell id="Lmp_f9BYq3N74pTqD6iq-69" value="" style="line;html=1;strokeWidth=1;align=left;verticalAlign=middle;spacingTop=-1;spacingLeft=3;spacingRight=3;rotatable=0;labelPosition=right;points=[];portConstraint=eastwest;" vertex="1" parent="Lmp_f9BYq3N74pTqD6iq-65">
          <mxGeometry y="78" width="260" height="8" as="geometry" />
        </mxCell>
        <mxCell id="Lmp_f9BYq3N74pTqD6iq-70" value="+ Transaksi(tanggal : String, jumlah : double)" style="text;align=left;verticalAlign=top;spacingLeft=4;spacingRight=4;overflow=hidden;rotatable=0;points=[[0,0.5],[1,0.5]];portConstraint=eastwest;" vertex="1" parent="Lmp_f9BYq3N74pTqD6iq-65">
          <mxGeometry y="86" width="260" height="26" as="geometry" />
        </mxCell>
        <mxCell id="Lmp_f9BYq3N74pTqD6iq-71" value="+ toString() : String" style="text;align=left;verticalAlign=top;spacingLeft=4;spacingRight=4;overflow=hidden;rotatable=0;points=[[0,0.5],[1,0.5]];portConstraint=eastwest;" vertex="1" parent="Lmp_f9BYq3N74pTqD6iq-65">
          <mxGeometry y="112" width="260" height="26" as="geometry" />
        </mxCell>
        <mxCell id="Lmp_f9BYq3N74pTqD6iq-80" value="TransaksiSetor" style="swimlane;fontStyle=0;align=center;verticalAlign=top;childLayout=stackLayout;horizontal=1;startSize=26;horizontalStack=0;resizeParent=1;resizeLast=0;collapsible=1;marginBottom=0;rounded=0;shadow=0;strokeWidth=1;" vertex="1" parent="WIyWlLk6GJQsqaUBKTNV-1">
          <mxGeometry x="2070" y="-460" width="280" height="90" as="geometry">
            <mxRectangle x="550" y="140" width="160" height="26" as="alternateBounds" />
          </mxGeometry>
        </mxCell>
        <mxCell id="Lmp_f9BYq3N74pTqD6iq-83" value="" style="line;html=1;strokeWidth=1;align=left;verticalAlign=middle;spacingTop=-1;spacingLeft=3;spacingRight=3;rotatable=0;labelPosition=right;points=[];portConstraint=eastwest;" vertex="1" parent="Lmp_f9BYq3N74pTqD6iq-80">
          <mxGeometry y="26" width="280" height="8" as="geometry" />
        </mxCell>
        <mxCell id="Lmp_f9BYq3N74pTqD6iq-84" value="+ TransaksiSetor(tanggal : String, jumlah : double)" style="text;align=left;verticalAlign=top;spacingLeft=4;spacingRight=4;overflow=hidden;rotatable=0;points=[[0,0.5],[1,0.5]];portConstraint=eastwest;" vertex="1" parent="Lmp_f9BYq3N74pTqD6iq-80">
          <mxGeometry y="34" width="280" height="26" as="geometry" />
        </mxCell>
        <mxCell id="Lmp_f9BYq3N74pTqD6iq-85" value="+ toString() : String" style="text;align=left;verticalAlign=top;spacingLeft=4;spacingRight=4;overflow=hidden;rotatable=0;points=[[0,0.5],[1,0.5]];portConstraint=eastwest;" vertex="1" parent="Lmp_f9BYq3N74pTqD6iq-80">
          <mxGeometry y="60" width="280" height="26" as="geometry" />
        </mxCell>
        <mxCell id="Lmp_f9BYq3N74pTqD6iq-86" value="TransaksiTarik" style="swimlane;fontStyle=0;align=center;verticalAlign=top;childLayout=stackLayout;horizontal=1;startSize=26;horizontalStack=0;resizeParent=1;resizeLast=0;collapsible=1;marginBottom=0;rounded=0;shadow=0;strokeWidth=1;" vertex="1" parent="WIyWlLk6GJQsqaUBKTNV-1">
          <mxGeometry x="2070" y="-330" width="280" height="90" as="geometry">
            <mxRectangle x="550" y="140" width="160" height="26" as="alternateBounds" />
          </mxGeometry>
        </mxCell>
        <mxCell id="Lmp_f9BYq3N74pTqD6iq-87" value="" style="line;html=1;strokeWidth=1;align=left;verticalAlign=middle;spacingTop=-1;spacingLeft=3;spacingRight=3;rotatable=0;labelPosition=right;points=[];portConstraint=eastwest;" vertex="1" parent="Lmp_f9BYq3N74pTqD6iq-86">
          <mxGeometry y="26" width="280" height="8" as="geometry" />
        </mxCell>
        <mxCell id="Lmp_f9BYq3N74pTqD6iq-88" value="+ TransaksiTarik(tanggal : String, jumlah : double)" style="text;align=left;verticalAlign=top;spacingLeft=4;spacingRight=4;overflow=hidden;rotatable=0;points=[[0,0.5],[1,0.5]];portConstraint=eastwest;" vertex="1" parent="Lmp_f9BYq3N74pTqD6iq-86">
          <mxGeometry y="34" width="280" height="26" as="geometry" />
        </mxCell>
        <mxCell id="Lmp_f9BYq3N74pTqD6iq-89" value="+ toString() : String" style="text;align=left;verticalAlign=top;spacingLeft=4;spacingRight=4;overflow=hidden;rotatable=0;points=[[0,0.5],[1,0.5]];portConstraint=eastwest;" vertex="1" parent="Lmp_f9BYq3N74pTqD6iq-86">
          <mxGeometry y="60" width="280" height="26" as="geometry" />
        </mxCell>
        <mxCell id="Lmp_f9BYq3N74pTqD6iq-90" value="TransaksiTransferInPoket" style="swimlane;fontStyle=0;align=center;verticalAlign=top;childLayout=stackLayout;horizontal=1;startSize=26;horizontalStack=0;resizeParent=1;resizeLast=0;collapsible=1;marginBottom=0;rounded=0;shadow=0;strokeWidth=1;" vertex="1" parent="WIyWlLk6GJQsqaUBKTNV-1">
          <mxGeometry x="2068" y="-200" width="440" height="112" as="geometry">
            <mxRectangle x="550" y="140" width="160" height="26" as="alternateBounds" />
          </mxGeometry>
        </mxCell>
        <mxCell id="Lmp_f9BYq3N74pTqD6iq-95" value="- dariRek : String" style="text;align=left;verticalAlign=top;spacingLeft=4;spacingRight=4;overflow=hidden;rotatable=0;points=[[0,0.5],[1,0.5]];portConstraint=eastwest;" vertex="1" parent="Lmp_f9BYq3N74pTqD6iq-90">
          <mxGeometry y="26" width="440" height="26" as="geometry" />
        </mxCell>
        <mxCell id="Lmp_f9BYq3N74pTqD6iq-91" value="" style="line;html=1;strokeWidth=1;align=left;verticalAlign=middle;spacingTop=-1;spacingLeft=3;spacingRight=3;rotatable=0;labelPosition=right;points=[];portConstraint=eastwest;" vertex="1" parent="Lmp_f9BYq3N74pTqD6iq-90">
          <mxGeometry y="52" width="440" height="8" as="geometry" />
        </mxCell>
        <mxCell id="Lmp_f9BYq3N74pTqD6iq-92" value="+ TransaksiTransferInPoket(tanggal : String, jumlah : double, dariRek : String)" style="text;align=left;verticalAlign=top;spacingLeft=4;spacingRight=4;overflow=hidden;rotatable=0;points=[[0,0.5],[1,0.5]];portConstraint=eastwest;" vertex="1" parent="Lmp_f9BYq3N74pTqD6iq-90">
          <mxGeometry y="60" width="440" height="26" as="geometry" />
        </mxCell>
        <mxCell id="Lmp_f9BYq3N74pTqD6iq-93" value="+ toString() : String" style="text;align=left;verticalAlign=top;spacingLeft=4;spacingRight=4;overflow=hidden;rotatable=0;points=[[0,0.5],[1,0.5]];portConstraint=eastwest;" vertex="1" parent="Lmp_f9BYq3N74pTqD6iq-90">
          <mxGeometry y="86" width="440" height="26" as="geometry" />
        </mxCell>
        <mxCell id="Lmp_f9BYq3N74pTqD6iq-96" value="TransaksiTransferInUser" style="swimlane;fontStyle=0;align=center;verticalAlign=top;childLayout=stackLayout;horizontal=1;startSize=26;horizontalStack=0;resizeParent=1;resizeLast=0;collapsible=1;marginBottom=0;rounded=0;shadow=0;strokeWidth=1;" vertex="1" parent="WIyWlLk6GJQsqaUBKTNV-1">
          <mxGeometry x="2068" y="130" width="520" height="138" as="geometry">
            <mxRectangle x="550" y="140" width="160" height="26" as="alternateBounds" />
          </mxGeometry>
        </mxCell>
        <mxCell id="Lmp_f9BYq3N74pTqD6iq-97" value="- dariRek : String" style="text;align=left;verticalAlign=top;spacingLeft=4;spacingRight=4;overflow=hidden;rotatable=0;points=[[0,0.5],[1,0.5]];portConstraint=eastwest;" vertex="1" parent="Lmp_f9BYq3N74pTqD6iq-96">
          <mxGeometry y="26" width="520" height="26" as="geometry" />
        </mxCell>
        <mxCell id="Lmp_f9BYq3N74pTqD6iq-101" value="- dariNama : String" style="text;align=left;verticalAlign=top;spacingLeft=4;spacingRight=4;overflow=hidden;rotatable=0;points=[[0,0.5],[1,0.5]];portConstraint=eastwest;" vertex="1" parent="Lmp_f9BYq3N74pTqD6iq-96">
          <mxGeometry y="52" width="520" height="26" as="geometry" />
        </mxCell>
        <mxCell id="Lmp_f9BYq3N74pTqD6iq-98" value="" style="line;html=1;strokeWidth=1;align=left;verticalAlign=middle;spacingTop=-1;spacingLeft=3;spacingRight=3;rotatable=0;labelPosition=right;points=[];portConstraint=eastwest;" vertex="1" parent="Lmp_f9BYq3N74pTqD6iq-96">
          <mxGeometry y="78" width="520" height="8" as="geometry" />
        </mxCell>
        <mxCell id="Lmp_f9BYq3N74pTqD6iq-99" value="+ TransaksiTransferInUser(tanggal : String, jumlah : double, dariRek : String, dariNama : String)" style="text;align=left;verticalAlign=top;spacingLeft=4;spacingRight=4;overflow=hidden;rotatable=0;points=[[0,0.5],[1,0.5]];portConstraint=eastwest;" vertex="1" parent="Lmp_f9BYq3N74pTqD6iq-96">
          <mxGeometry y="86" width="520" height="26" as="geometry" />
        </mxCell>
        <mxCell id="Lmp_f9BYq3N74pTqD6iq-100" value="+ toString() : String" style="text;align=left;verticalAlign=top;spacingLeft=4;spacingRight=4;overflow=hidden;rotatable=0;points=[[0,0.5],[1,0.5]];portConstraint=eastwest;" vertex="1" parent="Lmp_f9BYq3N74pTqD6iq-96">
          <mxGeometry y="112" width="520" height="26" as="geometry" />
        </mxCell>
        <mxCell id="Lmp_f9BYq3N74pTqD6iq-102" value="TransaksiTransferOutUser" style="swimlane;fontStyle=0;align=center;verticalAlign=top;childLayout=stackLayout;horizontal=1;startSize=26;horizontalStack=0;resizeParent=1;resizeLast=0;collapsible=1;marginBottom=0;rounded=0;shadow=0;strokeWidth=1;" vertex="1" parent="WIyWlLk6GJQsqaUBKTNV-1">
          <mxGeometry x="2068" y="320" width="560" height="138" as="geometry">
            <mxRectangle x="550" y="140" width="160" height="26" as="alternateBounds" />
          </mxGeometry>
        </mxCell>
        <mxCell id="Lmp_f9BYq3N74pTqD6iq-103" value="- tujuanRek : String" style="text;align=left;verticalAlign=top;spacingLeft=4;spacingRight=4;overflow=hidden;rotatable=0;points=[[0,0.5],[1,0.5]];portConstraint=eastwest;" vertex="1" parent="Lmp_f9BYq3N74pTqD6iq-102">
          <mxGeometry y="26" width="560" height="26" as="geometry" />
        </mxCell>
        <mxCell id="Lmp_f9BYq3N74pTqD6iq-104" value="- tujuanNama : String" style="text;align=left;verticalAlign=top;spacingLeft=4;spacingRight=4;overflow=hidden;rotatable=0;points=[[0,0.5],[1,0.5]];portConstraint=eastwest;" vertex="1" parent="Lmp_f9BYq3N74pTqD6iq-102">
          <mxGeometry y="52" width="560" height="26" as="geometry" />
        </mxCell>
        <mxCell id="Lmp_f9BYq3N74pTqD6iq-105" value="" style="line;html=1;strokeWidth=1;align=left;verticalAlign=middle;spacingTop=-1;spacingLeft=3;spacingRight=3;rotatable=0;labelPosition=right;points=[];portConstraint=eastwest;" vertex="1" parent="Lmp_f9BYq3N74pTqD6iq-102">
          <mxGeometry y="78" width="560" height="8" as="geometry" />
        </mxCell>
        <mxCell id="Lmp_f9BYq3N74pTqD6iq-106" value="+ TransaksiTransferOutUser(tanggal : String, jumlah : double, tujuanRek : String, tujuanNama : String)" style="text;align=left;verticalAlign=top;spacingLeft=4;spacingRight=4;overflow=hidden;rotatable=0;points=[[0,0.5],[1,0.5]];portConstraint=eastwest;" vertex="1" parent="Lmp_f9BYq3N74pTqD6iq-102">
          <mxGeometry y="86" width="560" height="26" as="geometry" />
        </mxCell>
        <mxCell id="Lmp_f9BYq3N74pTqD6iq-107" value="+ toString() : String" style="text;align=left;verticalAlign=top;spacingLeft=4;spacingRight=4;overflow=hidden;rotatable=0;points=[[0,0.5],[1,0.5]];portConstraint=eastwest;" vertex="1" parent="Lmp_f9BYq3N74pTqD6iq-102">
          <mxGeometry y="112" width="560" height="26" as="geometry" />
        </mxCell>
        <mxCell id="Lmp_f9BYq3N74pTqD6iq-108" value="TransaksiTransferOutPoket" style="swimlane;fontStyle=0;align=center;verticalAlign=top;childLayout=stackLayout;horizontal=1;startSize=26;horizontalStack=0;resizeParent=1;resizeLast=0;collapsible=1;marginBottom=0;rounded=0;shadow=0;strokeWidth=1;" vertex="1" parent="WIyWlLk6GJQsqaUBKTNV-1">
          <mxGeometry x="2068" y="-20" width="440" height="112" as="geometry">
            <mxRectangle x="550" y="140" width="160" height="26" as="alternateBounds" />
          </mxGeometry>
        </mxCell>
        <mxCell id="Lmp_f9BYq3N74pTqD6iq-109" value="- tujuanRek : String" style="text;align=left;verticalAlign=top;spacingLeft=4;spacingRight=4;overflow=hidden;rotatable=0;points=[[0,0.5],[1,0.5]];portConstraint=eastwest;" vertex="1" parent="Lmp_f9BYq3N74pTqD6iq-108">
          <mxGeometry y="26" width="440" height="26" as="geometry" />
        </mxCell>
        <mxCell id="Lmp_f9BYq3N74pTqD6iq-110" value="" style="line;html=1;strokeWidth=1;align=left;verticalAlign=middle;spacingTop=-1;spacingLeft=3;spacingRight=3;rotatable=0;labelPosition=right;points=[];portConstraint=eastwest;" vertex="1" parent="Lmp_f9BYq3N74pTqD6iq-108">
          <mxGeometry y="52" width="440" height="8" as="geometry" />
        </mxCell>
        <mxCell id="Lmp_f9BYq3N74pTqD6iq-111" value="+ TransaksiTransferOutPoket(tanggal : String, jumlah : double, tujuanRek : String)" style="text;align=left;verticalAlign=top;spacingLeft=4;spacingRight=4;overflow=hidden;rotatable=0;points=[[0,0.5],[1,0.5]];portConstraint=eastwest;" vertex="1" parent="Lmp_f9BYq3N74pTqD6iq-108">
          <mxGeometry y="60" width="440" height="26" as="geometry" />
        </mxCell>
        <mxCell id="Lmp_f9BYq3N74pTqD6iq-112" value="+ toString() : String" style="text;align=left;verticalAlign=top;spacingLeft=4;spacingRight=4;overflow=hidden;rotatable=0;points=[[0,0.5],[1,0.5]];portConstraint=eastwest;" vertex="1" parent="Lmp_f9BYq3N74pTqD6iq-108">
          <mxGeometry y="86" width="440" height="26" as="geometry" />
        </mxCell>
        <mxCell id="Lmp_f9BYq3N74pTqD6iq-113" value="Bank" style="swimlane;fontStyle=0;align=center;verticalAlign=top;childLayout=stackLayout;horizontal=1;startSize=26;horizontalStack=0;resizeParent=1;resizeLast=0;collapsible=1;marginBottom=0;rounded=0;shadow=0;strokeWidth=1;" vertex="1" parent="WIyWlLk6GJQsqaUBKTNV-1">
          <mxGeometry x="-290" y="820" width="570" height="294" as="geometry">
            <mxRectangle x="550" y="140" width="160" height="26" as="alternateBounds" />
          </mxGeometry>
        </mxCell>
        <mxCell id="Lmp_f9BYq3N74pTqD6iq-114" value="- listsNasabah : ArrayList&lt;Nasabah&gt;" style="text;align=left;verticalAlign=top;spacingLeft=4;spacingRight=4;overflow=hidden;rotatable=0;points=[[0,0.5],[1,0.5]];portConstraint=eastwest;" vertex="1" parent="Lmp_f9BYq3N74pTqD6iq-113">
          <mxGeometry y="26" width="570" height="26" as="geometry" />
        </mxCell>
        <mxCell id="Lmp_f9BYq3N74pTqD6iq-115" value="- listsAdmin : ArrayList&lt;Admin&gt;" style="text;align=left;verticalAlign=top;spacingLeft=4;spacingRight=4;overflow=hidden;rotatable=0;points=[[0,0.5],[1,0.5]];portConstraint=eastwest;rounded=0;shadow=0;html=0;" vertex="1" parent="Lmp_f9BYq3N74pTqD6iq-113">
          <mxGeometry y="52" width="570" height="26" as="geometry" />
        </mxCell>
        <mxCell id="Lmp_f9BYq3N74pTqD6iq-116" value="" style="line;html=1;strokeWidth=1;align=left;verticalAlign=middle;spacingTop=-1;spacingLeft=3;spacingRight=3;rotatable=0;labelPosition=right;points=[];portConstraint=eastwest;" vertex="1" parent="Lmp_f9BYq3N74pTqD6iq-113">
          <mxGeometry y="78" width="570" height="8" as="geometry" />
        </mxCell>
        <mxCell id="Lmp_f9BYq3N74pTqD6iq-117" value="+ Bank()" style="text;align=left;verticalAlign=top;spacingLeft=4;spacingRight=4;overflow=hidden;rotatable=0;points=[[0,0.5],[1,0.5]];portConstraint=eastwest;" vertex="1" parent="Lmp_f9BYq3N74pTqD6iq-113">
          <mxGeometry y="86" width="570" height="26" as="geometry" />
        </mxCell>
        <mxCell id="Lmp_f9BYq3N74pTqD6iq-118" value="+ tambahNasabah(idUser : String, username : String, nama : String, password : String, noRek : String)" style="text;align=left;verticalAlign=top;spacingLeft=4;spacingRight=4;overflow=hidden;rotatable=0;points=[[0,0.5],[1,0.5]];portConstraint=eastwest;" vertex="1" parent="Lmp_f9BYq3N74pTqD6iq-113">
          <mxGeometry y="112" width="570" height="26" as="geometry" />
        </mxCell>
        <mxCell id="Lmp_f9BYq3N74pTqD6iq-123" value="+ tambahAdmin(idUser : String, username : String, nama : String, password : String)" style="text;align=left;verticalAlign=top;spacingLeft=4;spacingRight=4;overflow=hidden;rotatable=0;points=[[0,0.5],[1,0.5]];portConstraint=eastwest;" vertex="1" parent="Lmp_f9BYq3N74pTqD6iq-113">
          <mxGeometry y="138" width="570" height="26" as="geometry" />
        </mxCell>
        <mxCell id="Lmp_f9BYq3N74pTqD6iq-125" value="+ getNasabah(username : String) : Nasabah" style="text;align=left;verticalAlign=top;spacingLeft=4;spacingRight=4;overflow=hidden;rotatable=0;points=[[0,0.5],[1,0.5]];portConstraint=eastwest;" vertex="1" parent="Lmp_f9BYq3N74pTqD6iq-113">
          <mxGeometry y="164" width="570" height="26" as="geometry" />
        </mxCell>
        <mxCell id="Lmp_f9BYq3N74pTqD6iq-124" value="+ getNasabah(username : String, password : String) : Nasabah" style="text;align=left;verticalAlign=top;spacingLeft=4;spacingRight=4;overflow=hidden;rotatable=0;points=[[0,0.5],[1,0.5]];portConstraint=eastwest;" vertex="1" parent="Lmp_f9BYq3N74pTqD6iq-113">
          <mxGeometry y="190" width="570" height="26" as="geometry" />
        </mxCell>
        <mxCell id="Lmp_f9BYq3N74pTqD6iq-126" value="+ getAdmin(username : String, password : String) : Admin" style="text;align=left;verticalAlign=top;spacingLeft=4;spacingRight=4;overflow=hidden;rotatable=0;points=[[0,0.5],[1,0.5]];portConstraint=eastwest;" vertex="1" parent="Lmp_f9BYq3N74pTqD6iq-113">
          <mxGeometry y="216" width="570" height="26" as="geometry" />
        </mxCell>
        <mxCell id="Lmp_f9BYq3N74pTqD6iq-127" value="+ getListsNasabah() : ArrayList&lt;Nasabah&gt;" style="text;align=left;verticalAlign=top;spacingLeft=4;spacingRight=4;overflow=hidden;rotatable=0;points=[[0,0.5],[1,0.5]];portConstraint=eastwest;" vertex="1" parent="Lmp_f9BYq3N74pTqD6iq-113">
          <mxGeometry y="242" width="570" height="26" as="geometry" />
        </mxCell>
        <mxCell id="Lmp_f9BYq3N74pTqD6iq-128" value="+ hapusNasabah(nasabah : Nasabah)" style="text;align=left;verticalAlign=top;spacingLeft=4;spacingRight=4;overflow=hidden;rotatable=0;points=[[0,0.5],[1,0.5]];portConstraint=eastwest;" vertex="1" parent="Lmp_f9BYq3N74pTqD6iq-113">
          <mxGeometry y="268" width="570" height="26" as="geometry" />
        </mxCell>
        <mxCell id="Lmp_f9BYq3N74pTqD6iq-131" value="" style="endArrow=classic;html=1;rounded=0;entryX=1;entryY=0;entryDx=0;entryDy=0;exitX=0;exitY=0.5;exitDx=0;exitDy=0;" edge="1" parent="WIyWlLk6GJQsqaUBKTNV-1" source="Lmp_f9BYq3N74pTqD6iq-85" target="Lmp_f9BYq3N74pTqD6iq-65">
          <mxGeometry width="50" height="50" relative="1" as="geometry">
            <mxPoint x="1950" y="-30" as="sourcePoint" />
            <mxPoint x="2000" y="-80" as="targetPoint" />
          </mxGeometry>
        </mxCell>
        <mxCell id="Lmp_f9BYq3N74pTqD6iq-137" value="Extend" style="edgeLabel;html=1;align=center;verticalAlign=middle;resizable=0;points=[];" vertex="1" connectable="0" parent="Lmp_f9BYq3N74pTqD6iq-131">
          <mxGeometry x="-0.1056" y="1" relative="1" as="geometry">
            <mxPoint x="-9" y="1" as="offset" />
          </mxGeometry>
        </mxCell>
        <mxCell id="Lmp_f9BYq3N74pTqD6iq-132" value="" style="endArrow=classic;html=1;rounded=0;entryX=1.002;entryY=-0.115;entryDx=0;entryDy=0;entryPerimeter=0;exitX=0;exitY=0.5;exitDx=0;exitDy=0;" edge="1" parent="WIyWlLk6GJQsqaUBKTNV-1" source="Lmp_f9BYq3N74pTqD6iq-88" target="Lmp_f9BYq3N74pTqD6iq-66">
          <mxGeometry width="50" height="50" relative="1" as="geometry">
            <mxPoint x="1890" y="-110" as="sourcePoint" />
            <mxPoint x="1940" y="-160" as="targetPoint" />
          </mxGeometry>
        </mxCell>
        <mxCell id="Lmp_f9BYq3N74pTqD6iq-138" value="Extend" style="edgeLabel;html=1;align=center;verticalAlign=middle;resizable=0;points=[];" vertex="1" connectable="0" parent="Lmp_f9BYq3N74pTqD6iq-132">
          <mxGeometry x="-0.1528" y="-1" relative="1" as="geometry">
            <mxPoint as="offset" />
          </mxGeometry>
        </mxCell>
        <mxCell id="Lmp_f9BYq3N74pTqD6iq-133" value="" style="endArrow=classic;html=1;rounded=0;entryX=1.002;entryY=-0.209;entryDx=0;entryDy=0;entryPerimeter=0;exitX=0;exitY=0.5;exitDx=0;exitDy=0;" edge="1" parent="WIyWlLk6GJQsqaUBKTNV-1" source="Lmp_f9BYq3N74pTqD6iq-92" target="Lmp_f9BYq3N74pTqD6iq-67">
          <mxGeometry width="50" height="50" relative="1" as="geometry">
            <mxPoint x="1920" y="-110" as="sourcePoint" />
            <mxPoint x="1970" y="-160" as="targetPoint" />
          </mxGeometry>
        </mxCell>
        <mxCell id="Lmp_f9BYq3N74pTqD6iq-139" value="Extend" style="edgeLabel;html=1;align=center;verticalAlign=middle;resizable=0;points=[];" vertex="1" connectable="0" parent="Lmp_f9BYq3N74pTqD6iq-133">
          <mxGeometry x="-0.229" relative="1" as="geometry">
            <mxPoint as="offset" />
          </mxGeometry>
        </mxCell>
        <mxCell id="Lmp_f9BYq3N74pTqD6iq-134" value="" style="endArrow=classic;html=1;rounded=0;entryX=1;entryY=0.5;entryDx=0;entryDy=0;exitX=0;exitY=0.5;exitDx=0;exitDy=0;" edge="1" parent="WIyWlLk6GJQsqaUBKTNV-1" source="Lmp_f9BYq3N74pTqD6iq-111" target="Lmp_f9BYq3N74pTqD6iq-67">
          <mxGeometry width="50" height="50" relative="1" as="geometry">
            <mxPoint x="1980" y="-10" as="sourcePoint" />
            <mxPoint x="2030" y="-60" as="targetPoint" />
          </mxGeometry>
        </mxCell>
        <mxCell id="Lmp_f9BYq3N74pTqD6iq-140" value="Extend" style="edgeLabel;html=1;align=center;verticalAlign=middle;resizable=0;points=[];" vertex="1" connectable="0" parent="Lmp_f9BYq3N74pTqD6iq-134">
          <mxGeometry x="-0.1839" relative="1" as="geometry">
            <mxPoint as="offset" />
          </mxGeometry>
        </mxCell>
        <mxCell id="Lmp_f9BYq3N74pTqD6iq-135" value="" style="endArrow=classic;html=1;rounded=0;entryX=1;entryY=0.5;entryDx=0;entryDy=0;exitX=0;exitY=0.5;exitDx=0;exitDy=0;" edge="1" parent="WIyWlLk6GJQsqaUBKTNV-1" source="Lmp_f9BYq3N74pTqD6iq-101" target="Lmp_f9BYq3N74pTqD6iq-70">
          <mxGeometry width="50" height="50" relative="1" as="geometry">
            <mxPoint x="1920" y="50" as="sourcePoint" />
            <mxPoint x="1970" as="targetPoint" />
          </mxGeometry>
        </mxCell>
        <mxCell id="Lmp_f9BYq3N74pTqD6iq-141" value="Extend" style="edgeLabel;html=1;align=center;verticalAlign=middle;resizable=0;points=[];" vertex="1" connectable="0" parent="Lmp_f9BYq3N74pTqD6iq-135">
          <mxGeometry x="0.0197" y="1" relative="1" as="geometry">
            <mxPoint as="offset" />
          </mxGeometry>
        </mxCell>
        <mxCell id="Lmp_f9BYq3N74pTqD6iq-136" value="" style="endArrow=classic;html=1;rounded=0;entryX=1;entryY=1;entryDx=0;entryDy=0;exitX=0;exitY=0.5;exitDx=0;exitDy=0;" edge="1" parent="WIyWlLk6GJQsqaUBKTNV-1" source="Lmp_f9BYq3N74pTqD6iq-104" target="Lmp_f9BYq3N74pTqD6iq-65">
          <mxGeometry width="50" height="50" relative="1" as="geometry">
            <mxPoint x="1880" y="210" as="sourcePoint" />
            <mxPoint x="1930" y="160" as="targetPoint" />
          </mxGeometry>
        </mxCell>
        <mxCell id="Lmp_f9BYq3N74pTqD6iq-142" value="Extend" style="edgeLabel;html=1;align=center;verticalAlign=middle;resizable=0;points=[];" vertex="1" connectable="0" parent="Lmp_f9BYq3N74pTqD6iq-136">
          <mxGeometry x="0.1656" y="1" relative="1" as="geometry">
            <mxPoint as="offset" />
          </mxGeometry>
        </mxCell>
        <mxCell id="Lmp_f9BYq3N74pTqD6iq-143" value="" style="endArrow=classic;html=1;rounded=0;entryX=1;entryY=0.5;entryDx=0;entryDy=0;exitX=0;exitY=0.5;exitDx=0;exitDy=0;" edge="1" parent="WIyWlLk6GJQsqaUBKTNV-1" source="Lmp_f9BYq3N74pTqD6iq-67" target="Lmp_f9BYq3N74pTqD6iq-54">
          <mxGeometry width="50" height="50" relative="1" as="geometry">
            <mxPoint x="1290" y="-20" as="sourcePoint" />
            <mxPoint x="1340" y="-70" as="targetPoint" />
          </mxGeometry>
        </mxCell>
        <mxCell id="Lmp_f9BYq3N74pTqD6iq-144" value="AGREGASI" style="edgeLabel;html=1;align=center;verticalAlign=middle;resizable=0;points=[];" vertex="1" connectable="0" parent="Lmp_f9BYq3N74pTqD6iq-143">
          <mxGeometry x="0.0504" y="-1" relative="1" as="geometry">
            <mxPoint as="offset" />
          </mxGeometry>
        </mxCell>
        <mxCell id="Lmp_f9BYq3N74pTqD6iq-145" value="" style="endArrow=classic;html=1;rounded=0;entryX=0.502;entryY=1.087;entryDx=0;entryDy=0;entryPerimeter=0;exitX=0.5;exitY=0;exitDx=0;exitDy=0;" edge="1" parent="WIyWlLk6GJQsqaUBKTNV-1" source="Lmp_f9BYq3N74pTqD6iq-16" target="Lmp_f9BYq3N74pTqD6iq-15">
          <mxGeometry width="50" height="50" relative="1" as="geometry">
            <mxPoint x="290" y="600" as="sourcePoint" />
            <mxPoint x="340" y="550" as="targetPoint" />
          </mxGeometry>
        </mxCell>
        <mxCell id="Lmp_f9BYq3N74pTqD6iq-146" value="EXTEND" style="edgeLabel;html=1;align=center;verticalAlign=middle;resizable=0;points=[];" vertex="1" connectable="0" parent="Lmp_f9BYq3N74pTqD6iq-145">
          <mxGeometry x="-0.0224" relative="1" as="geometry">
            <mxPoint as="offset" />
          </mxGeometry>
        </mxCell>
        <mxCell id="Lmp_f9BYq3N74pTqD6iq-147" value="" style="endArrow=classic;html=1;rounded=0;entryX=0.499;entryY=1.139;entryDx=0;entryDy=0;entryPerimeter=0;exitX=0.5;exitY=0;exitDx=0;exitDy=0;" edge="1" parent="WIyWlLk6GJQsqaUBKTNV-1" source="Lmp_f9BYq3N74pTqD6iq-30" target="Lmp_f9BYq3N74pTqD6iq-15">
          <mxGeometry width="50" height="50" relative="1" as="geometry">
            <mxPoint x="420" y="430" as="sourcePoint" />
            <mxPoint x="470" y="380" as="targetPoint" />
          </mxGeometry>
        </mxCell>
        <mxCell id="Lmp_f9BYq3N74pTqD6iq-148" value="EXTEND" style="edgeLabel;html=1;align=center;verticalAlign=middle;resizable=0;points=[];" vertex="1" connectable="0" parent="Lmp_f9BYq3N74pTqD6iq-147">
          <mxGeometry x="0.1712" relative="1" as="geometry">
            <mxPoint as="offset" />
          </mxGeometry>
        </mxCell>
        <mxCell id="Lmp_f9BYq3N74pTqD6iq-149" value="" style="endArrow=classic;html=1;rounded=0;entryX=0.5;entryY=0;entryDx=0;entryDy=0;exitX=0.5;exitY=1.125;exitDx=0;exitDy=0;exitPerimeter=0;" edge="1" parent="WIyWlLk6GJQsqaUBKTNV-1" source="Lmp_f9BYq3N74pTqD6iq-64" target="Lmp_f9BYq3N74pTqD6iq-30">
          <mxGeometry width="50" height="50" relative="1" as="geometry">
            <mxPoint x="910" y="400" as="sourcePoint" />
            <mxPoint x="790" y="440" as="targetPoint" />
          </mxGeometry>
        </mxCell>
        <mxCell id="Lmp_f9BYq3N74pTqD6iq-150" value="KOMPOSISI" style="edgeLabel;html=1;align=center;verticalAlign=middle;resizable=0;points=[];" vertex="1" connectable="0" parent="Lmp_f9BYq3N74pTqD6iq-149">
          <mxGeometry x="-0.0599" y="2" relative="1" as="geometry">
            <mxPoint y="1" as="offset" />
          </mxGeometry>
        </mxCell>
        <mxCell id="Lmp_f9BYq3N74pTqD6iq-151" value="" style="endArrow=classic;html=1;rounded=0;entryX=0.5;entryY=0;entryDx=0;entryDy=0;exitX=0.5;exitY=1;exitDx=0;exitDy=0;" edge="1" parent="WIyWlLk6GJQsqaUBKTNV-1" source="Lmp_f9BYq3N74pTqD6iq-16" target="Lmp_f9BYq3N74pTqD6iq-113">
          <mxGeometry width="50" height="50" relative="1" as="geometry">
            <mxPoint x="90" y="850" as="sourcePoint" />
            <mxPoint x="140" y="800" as="targetPoint" />
          </mxGeometry>
        </mxCell>
        <mxCell id="Lmp_f9BYq3N74pTqD6iq-152" value="AGREGASI" style="edgeLabel;html=1;align=center;verticalAlign=middle;resizable=0;points=[];" vertex="1" connectable="0" parent="Lmp_f9BYq3N74pTqD6iq-151">
          <mxGeometry x="-0.0387" relative="1" as="geometry">
            <mxPoint as="offset" />
          </mxGeometry>
        </mxCell>
        <mxCell id="Lmp_f9BYq3N74pTqD6iq-153" value="" style="endArrow=classic;html=1;rounded=0;entryX=1;entryY=0.5;entryDx=0;entryDy=0;exitX=0.496;exitY=1.148;exitDx=0;exitDy=0;exitPerimeter=0;" edge="1" parent="WIyWlLk6GJQsqaUBKTNV-1" source="Lmp_f9BYq3N74pTqD6iq-45" target="Lmp_f9BYq3N74pTqD6iq-123">
          <mxGeometry width="50" height="50" relative="1" as="geometry">
            <mxPoint x="390" y="870" as="sourcePoint" />
            <mxPoint x="440" y="820" as="targetPoint" />
          </mxGeometry>
        </mxCell>
        <mxCell id="Lmp_f9BYq3N74pTqD6iq-154" value="AGREGASI" style="edgeLabel;html=1;align=center;verticalAlign=middle;resizable=0;points=[];" vertex="1" connectable="0" parent="Lmp_f9BYq3N74pTqD6iq-153">
          <mxGeometry x="0.0734" y="-3" relative="1" as="geometry">
            <mxPoint x="-1" as="offset" />
          </mxGeometry>
        </mxCell>
      </root>
    </mxGraphModel>
  </diagram>
</mxfile>
